<mxfile host="app.diagrams.net" modified="2023-10-28T14:00:13.599Z" agent="Mozilla/5.0 (Macintosh; Intel Mac OS X 10_15_7) AppleWebKit/537.36 (KHTML, like Gecko) Chrome/118.0.0.0 Safari/537.36" etag="eHfFMm5EzxNKgZNGpjdh" version="22.0.8" type="github">
  <diagram name="Page-1" id="5O2nbIsNIlbIH-pZaBru">
    <mxGraphModel dx="906" dy="617" grid="1" gridSize="10" guides="1" tooltips="1" connect="1" arrows="1" fold="1" page="1" pageScale="1" pageWidth="827" pageHeight="1169" math="0" shadow="0">
      <root>
        <mxCell id="0" />
        <mxCell id="1" parent="0" />
        <mxCell id="d52loy8jxBY1kBWA77zx-1" value="" style="rounded=0;whiteSpace=wrap;html=1;strokeColor=#000000;" vertex="1" parent="1">
          <mxGeometry x="20" y="10" width="330" height="160" as="geometry" />
        </mxCell>
        <mxCell id="d52loy8jxBY1kBWA77zx-2" value="" style="rounded=0;whiteSpace=wrap;html=1;strokeColor=#000000;" vertex="1" parent="1">
          <mxGeometry x="10" y="20" width="330" height="160" as="geometry" />
        </mxCell>
        <mxCell id="d52loy8jxBY1kBWA77zx-3" value="User-Centric Application" style="rounded=0;whiteSpace=wrap;html=1;fillColor=#000000;fontColor=#FFFFFF;fontSize=16;" vertex="1" parent="1">
          <mxGeometry x="10" y="20" width="330" height="40" as="geometry" />
        </mxCell>
        <mxCell id="d52loy8jxBY1kBWA77zx-4" value="Mobile" style="rounded=0;whiteSpace=wrap;html=1;" vertex="1" parent="1">
          <mxGeometry x="10" y="60" width="110" height="40" as="geometry" />
        </mxCell>
        <mxCell id="d52loy8jxBY1kBWA77zx-5" value="Browser" style="rounded=0;whiteSpace=wrap;html=1;" vertex="1" parent="1">
          <mxGeometry x="120" y="60" width="110" height="40" as="geometry" />
        </mxCell>
        <mxCell id="d52loy8jxBY1kBWA77zx-6" value="Chatbot" style="rounded=0;whiteSpace=wrap;html=1;" vertex="1" parent="1">
          <mxGeometry x="230" y="60" width="110" height="40" as="geometry" />
        </mxCell>
        <mxCell id="d52loy8jxBY1kBWA77zx-7" value="Integraction&lt;br&gt;Logic" style="rounded=0;whiteSpace=wrap;html=1;fillColor=#595959;fontColor=#FFFFFF;align=left;" vertex="1" parent="1">
          <mxGeometry x="20" y="110" width="310" height="60" as="geometry" />
        </mxCell>
        <mxCell id="d52loy8jxBY1kBWA77zx-8" value="" style="shape=image;verticalLabelPosition=bottom;labelBackgroundColor=default;verticalAlign=top;aspect=fixed;imageAspect=0;image=data:image/png,iVBORw0KGgoAAAANSUhEUgAAAFgAAABVCAYAAADNCyPqAAAAAXNSR0IArs4c6QAAAIRlWElmTU0AKgAAAAgABQESAAMAAAABAAEAAAEaAAUAAAABAAAASgEbAAUAAAABAAAAUgEoAAMAAAABAAIAAIdpAAQAAAABAAAAWgAAAAAAAADcAAAAAQAAANwAAAABAAOgAQADAAAAAQABAACgAgAEAAAAAQAAAFigAwAEAAAAAQAAAFUAAAAApLIO0wAAAAlwSFlzAAAh1QAAIdUBBJy0nQAAD3VJREFUeAHtXWmsHMUR7p7Z+z0bzGHjM8QyBIht7gSE4oMrQZCQgCCXjU3AEBEClk0UA4G88CNSooBBiSDmMBgTjGMrRgZEAIMMRIREQMAHP7AE8REDvp/f2327szPT+apnZnfezszOznj3Hea1PG9mq6urqmuqq6ure9eMDZUhDQxpYEgDQxoY0sBhqgHe1/0ql8u3JxKJMeBr9jXvJvFLgs5dnPO9jdDrUwULIdZBqAsaEWyA4/RAvgVQ8p8HhJxQrIJrD64duBYPCKEOQQj0YQsuKpcdApnmNYUgT+PahCtDVHHv05HTvJ5UZUcfrsMlDMO4u5n0Y9EiQVCeiNV4ADdCn3bi2lJPxES9ymbUQYDxRAdv+m+S3n3bs2zUkQXWvb8Z5PueRqaNsTlHNzwCW65g0zQvVRSliMhhraWN7Yx1C8YKnX2vnGZwNMqRqCiRsGMgw4J1NGv4jcdgMaCbtFzBA7r3fSBcy11EaB8SKcbUGjFKheBm6Zy3rpX4psFYueTl2SCkpmcNtmoemmB66Umma68iAFItsmo343wVYjl/LsWeHzJhZlhl7AGfsZW4KpBKQwUke/JXowYzk11MlmcKX45PaQdUuatYpLnx4d9A9kQ4uNuAA0uIXvpfwUK8yRZMpQ5XywObKeCsfnY/LZj8jPujfF68Acg+bp5D5wunrvLib3wcMB8F44XcUoN/3+avMW7OZyKegr1v3SNNiwEKb8JL9lFus8RWyym87NgM+l/BzVLEAKXT/woWLP4MUlFqgDup1Df64GOoZQWJHR6bQROGZ6PC++LhBfO72P0b58HH2b3jOjPr9Gfxxn+AksswgM+FgvbeYiIEX7zpDTh0Vz+Bz0TWiwwIRQsefDEcNTKH4tsmBOhiHILZuuqJUM7EKnk/TVVr8XRer0+k2aAm1kT5DQ9+b0D1k5Ap6hp8H6uutgh9cllCKO4QQgwNDCk4htKiNOkLF9F7ACeONRWG1ZG8wkQ9tOEZRj1OPcdOF0nfaImsYCxurgdxcvyNWD8leshnJtHuJtxzRV1PPvj+J8zUENQHFBO+s6iVxJsf/YchGzegtKxmMuyVALn9wA0JD+UQHin0M1zHECF0XMeelGHXESio0MxBl3yZaCNw6b7BO+qsGZ/LVVaxXBRzltzN2zM5oPceCEHMWg1PZlLs4Wt+JfUGmXaCXx79OSGIbxQLJmukMhYEiXBLC4Sfnklm1q+8+ffs2kc6EChwJ45rKd8w4pVoMgzRrm9kmJP1/Bv4tJN6Tl8ol2QDn9dx+y4933bJbKHp0RLd1G4glIYsGJ1th0vQVFX9F7t38wVMMf8C4bXWdoC/CL43gu8b6VR6WiaVEcI0GnJprZUrGvVQBeu6/m2QPAnKtTtnZlkiNQopxmicImML6eux3TQdI0hMGTtRbNi+hWQowBvvhMOw5RE0qZ9Yh3wR42E76u3RKgzBxAnV9rUt+X7U763UC9NkXJmIuSF4Vq4l4focqmAo1n9Z6SLSykfoVioG1mwriL+y7IYO6TocvnMfvhvzAw9SwNtP3NAx08GlO/Aph1zNEduVXFFYWRgPPDXvnt/YIHmb+0jHLkwCx7phjT6HKhiEgqdvp8/EzVpmWnybBbeo1f71kZl0HySmj+JJvoCoBHGMN09sInR3BkytNCGffYQNaeFU0zaPXn4Bij2A0deOKf5iCJGV2z96+UXA9wE+ErsHM9AkKeGG/hIzjT3QxTFMUWeiTQp3rDn0dcD/HO1H44K1xeyNI9sAutvDLoZESUowqfPZwtNmsVTqJigLCkVJwgAS6m0SzgROvXCKPgADXFVul3BVLIJHzEs44Qtxl4XP7wG+zLjIOt8/wiecCG4CR+2El1Vq7tFWhdpPAj67pnAlmEENau3H+BZMlFTb0golhaVc7woJRMmIZn2u4KJPGMKGjW/i7vaYig2n+hCJMLIvgw+lUSNZIFWJOakXNQtu/xXMnObBZ5xWLr3w6APNZypT7wD+gt70zSPw4j34jQBCulOHRBGnRzLtH7El20gyxoowSOsuWLZ9k4RTPpZ2fKkzGib/TPu7FhwTf4kMuAJ/S8INwrcMO4iz9Qo4OmwryKunmqbSB9fg12skMKRoJemmH0+5JEh8BdMrLdJk7Cn+cFoC+eFLeH2lejgMIoBrXA8iqQeRqJEteCTflVRV2mj1mWua3HHKLDnFRL7JdPyuA+yHu2GF5Q1zjqzgszMfDB+XOYDIKkpWtGF5bET4PPx71NVsUnIrU1ObXJD+eUynE2xpBNaRFWwqCk7zJZB0ju/4I8hXQR2hdLIedXflc389ZFR3+BMuxZAPDtfRIWFEtuAqNyFS2SwyBFzGj+WiBr9MoQ0HPC3hyISxchFb4TLi4SKZTWG5jx12wDUfuGnY+FUmg/4ptgUnsxle6ilMXvLjRXxr5/DJhsl3kTaQ8efFUuEMgmv5/HRovUvC00mOl3AuwQ/2mOdhk+QgwROAa3ltOsHzBePSqAltojGQS2wLJg+cUFR5KqfEMyUsACrRu6pbcB2GmlTsUzFooHLFOsUDOG1C2es3yoNZuU/AwwIFvAChC7XX0jXJ9UDHGBWfRmC5hn4C9OPOOLEVXC6VaeH29NyHf503xY526PsosiRdA1xhTwJOlnsk/APSghxwHNgxjMcA78Sh9yOQcpBwo4xwT4iHAMfy1zi6soIiYv7lrb0id1O6jCOsKCWudI5Kdn5YTWf2bgTFfLBPGzY7xcryYHGJZztHpXa/D7hs3xtbct+y28xekdVJbmy4qemD4xJ738YjVoPRS2wFkx9FOZv+OEZKzzb8THq2ivXuCQ4lnE4wubdpRyHCOiZ1moVbGQTWR5+/8OAH5s9Zu8Fd9czyGXUaiq5br1/TK74DfmCMCfqFBXOf2+ymv2L5DD2uBcf2wW4Bhp6DNRDZgrGiIh8Y6fBFMPvgGj6wjkMECxpSE1nBJyY+aZ+a/pjpep1RGcK0kWq4E7bcDxEJzXeWnJn8mI2QPvXqG9fV/T4YIsdER8eMxCmjE9KnWvhyivWjTjO12tHBlFNGXziMEAgfGdHKFp1vozrAyArOck09Wu3E3lUdqk2ociKMWlKKwr/52cijtJydz31hzUWsqzs4L5JI8HPPOjWBmdcSOAwf9KecdepFhoP/POjn85XmteKEfo6sYJraKFZtsX5B35+DgT3h7joKre1xVHwTk24U+rX8aj9HVrCbgNvKbAOR1c2Cu3kN1ufYCk4kcEbSEEsxlHb3iPToFC9fpTAzK+G6uQwKQbaRT8CxtCtxT2GoIgMnngL8f2WmTMDK4EokIFN03AKJuRVcmNt1pk5SFXYFngerPj1yxw7TkknsZDPl3u/PXr/oXe30+xFZyG8PJpO0DcfuJ7jJzIeY4HL1RopHBPIngneKtgehQrl6SwKOl/DQD655/ZcH9LbHg3K+UD52LxP9f7m/jeBRpxcQ24IpsaMLfeyKpdO6tiqfjkHOR74sMj5h8DGA74UfpW14VAEGl4oFyWjAx+dZeTRgMnYnOOGtWDFtfJemj6RPfuXc1LvMyKzzq+pTWFvEYzixFVwsGqItk3iZ5zg72dzBiiVr4sVdZLLqCwrOO9CEUbLhJQ3wjLpGySVY1iyzUtGUqtTKhshlkisxe7Osqkk6fhozpAX71fQtDHNspBJbweDCe4q+K04O5XuFQOjhB4cF+8K9BAYnJLYPHpzd7XupI1uwKRJI5yWx0Ig4VqL0jRx0QCCRQPjRhq9l13I/2CNB0q+7WSEqYe3VUw7S8ecx7SKV6ls8+KAI2s66w7dNPWBkBY9Pbht+SeY1pumtNX6kPHzl7tIz7ywrXHRnzsxDbVYxeNL8yYiXnidF1Ja8kfpw2f5vzW8T3TI9WVCP7J7J1y8fn9o31s+f9hjJT5YeuHzecHOfXIrvEsd0z8utfhYxEH0vJXKJrGAVX7FIIdUjuI+fjcw+eoMcL372s1nPvVzb8rq/10KszxlF23Pz7LWvuGs/eGZ0wWPqNkKalw/cOmv1q278n67CBoEbEOG5tWYYQZAIqEG68SWBgeDBR1jogTmNoUhPnR/MwQ+7R7ZgN8E0fr+ClsUU+2LDouIXU6CKvU2EaRbcaRMV7rQbzPfYFjwcHqpHY1/KXM74z/fccepB0YYtH8aGIRDHLtAJBNdK7ExoXW5utgOOjeQpBH+v6ytnayIpD6S1wTMSHsE3dE+42FAwg9UrdMAnQkEo7h3dQQ7eouvFr9pOBM4W6iFZMFa5ciIYx3bmsNVSYW7YcFo7IG9uDTlU4xdb5DoomyzQvTIUFQeuluREVCHk84Dg5Yz9q9gTqKpsdIKP6PGe6pWtMcJO2r+aPQ7xZF/RSOsW+44LnEEEO/7AKrYU4mJ8SiFpSS9zw5JgxD+xFVyGhBDiwoOr2KSP9Ne+ikyBFIhOVKmCnQ/4BJjaFOAgzWOFRVDOjH0r2XHdxt6pMESpIMKHK5kG+FEF1nVOA4mesaA3x91Pihix1xpURsIPz3UqyfxzSI8ERpmcjQDKtZW37zSMeY+tYLgHkUuxP5KvnWpuI3chhe5BbjqXZosJbkB5OI8ibbsIeDbFfk9xZptRqMBL+M4n4L+lE0kEJzqHU4mtYGiNF6xTDr31UQfeE4B/uCnVrZDYk5ybyNBzsAYiWzD2//Q8Ttlr+EngYLLNqqkuzTSREsWAX4JpFreG6Mi4uipXWJvICi4amae26WPeRuzbUgWXDQM/4b2tIr85btaiT3e8/88KoJ8ezDx94/O/zeOOxPpVuFqqzHrSgjX9ejaVS+vh9UcdZOq/3w8GcxodP8LljgtSOO/wZCuUAX6TQPfruBC7yEIrlr+CX0CEbGP19w2Cx7JgtBuGy1Oi9gcEGrJg4N3sYSbEcVH5RcEHv1AL7oso4nRYEcXts6IIHwOX+rLK5nVyjPYtadKIguWK6xC4Iw0kizN045JqZHHl5CkcnnF5Na1dI1HERnArYDh8D9axJgbn1WhLiR2c/Y1W0I4MEr+RJOdY3289uiiSUr8D3PdwD81puNq19DHUgtFBOiu7HdejESVxIg9sxbMv44q8IwDe0JfU7rN4Xh/CnyYzsvLjcTm+17FogFpSGhlV4YzRx4Wyp0JMJmw8N4dwCGvwmWnznR2C2mfVTt/xBZ+1JJumabc0hTlo/YIIouxoCsEQIvhvIbYSM9wfCUHt82qI9TnJhnJ+GPNIlgiC14Lg73AdG0b4MK//HP27E27rsbB+RlKwQwyK/gOe3QsIp+qLcMeXAPnCL0JHB0Uf/w/I3ErImEiHVwAAAABJRU5ErkJggg==;" vertex="1" parent="1">
          <mxGeometry x="149.12" y="115" width="51.76" height="50" as="geometry" />
        </mxCell>
        <mxCell id="d52loy8jxBY1kBWA77zx-9" value="" style="rounded=0;whiteSpace=wrap;html=1;strokeColor=#000000;" vertex="1" parent="1">
          <mxGeometry x="572" y="10" width="330" height="160" as="geometry" />
        </mxCell>
        <mxCell id="d52loy8jxBY1kBWA77zx-10" value="" style="rounded=0;whiteSpace=wrap;html=1;strokeColor=#000000;" vertex="1" parent="1">
          <mxGeometry x="562" y="20" width="330" height="160" as="geometry" />
        </mxCell>
        <mxCell id="d52loy8jxBY1kBWA77zx-11" value="Real-World Things" style="rounded=0;whiteSpace=wrap;html=1;fillColor=#000000;fontColor=#FFFFFF;fontSize=16;" vertex="1" parent="1">
          <mxGeometry x="562" y="20" width="330" height="40" as="geometry" />
        </mxCell>
        <mxCell id="d52loy8jxBY1kBWA77zx-12" value="Device" style="rounded=0;whiteSpace=wrap;html=1;" vertex="1" parent="1">
          <mxGeometry x="562" y="60" width="110" height="40" as="geometry" />
        </mxCell>
        <mxCell id="d52loy8jxBY1kBWA77zx-13" value="Sensor" style="rounded=0;whiteSpace=wrap;html=1;" vertex="1" parent="1">
          <mxGeometry x="672" y="60" width="110" height="40" as="geometry" />
        </mxCell>
        <mxCell id="d52loy8jxBY1kBWA77zx-14" value="Asset" style="rounded=0;whiteSpace=wrap;html=1;" vertex="1" parent="1">
          <mxGeometry x="782" y="60" width="110" height="40" as="geometry" />
        </mxCell>
        <mxCell id="d52loy8jxBY1kBWA77zx-15" value="Integraction&lt;br&gt;Logic" style="rounded=0;whiteSpace=wrap;html=1;fillColor=#595959;fontColor=#FFFFFF;align=right;" vertex="1" parent="1">
          <mxGeometry x="572" y="110" width="310" height="60" as="geometry" />
        </mxCell>
        <mxCell id="d52loy8jxBY1kBWA77zx-16" value="" style="shape=image;verticalLabelPosition=bottom;labelBackgroundColor=default;verticalAlign=top;aspect=fixed;imageAspect=0;image=data:image/png,iVBORw0KGgoAAAANSUhEUgAAAH0AAAB9CAYAAACPgGwlAAAAAXNSR0IArs4c6QAAAIRlWElmTU0AKgAAAAgABQESAAMAAAABAAEAAAEaAAUAAAABAAAASgEbAAUAAAABAAAAUgEoAAMAAAABAAIAAIdpAAQAAAABAAAAWgAAAAAAAADcAAAAAQAAANwAAAABAAOgAQADAAAAAQABAACgAgAEAAAAAQAAAH2gAwAEAAAAAQAAAH0AAAAAjw60YAAAAAlwSFlzAAAh1QAAIdUBBJy0nQAACLNJREFUeAHtXFuoVUUYXuccPYZhmualUsqkwEAIuhDR7aF6MIooJKKLFAQ+RT0EPgg9hJAVha8SQZBQGUXQgw/1UL1FZPXQBdLSojRNzVPauffNdv/H3926zKw1/zpzjt+Gw8ya+ef7/vm+NWvtPXvtk2V8UQEqQAWoABWgAlSAClABKkAFqAAVoAJUgApQASpABagAFaACVIAKUAEqQAWoABWgAlSAClABKkAFqAAVoAJUgApQASpABWaMAn1WmU7iZYHdh1cVrgH3IGhHq3hdfyxun3n65JMX05/XOJPbxsfHvzTIf8QHM5bhjismlk/uUWJc0u4VBawrgg9eh3QaeXHSnWw6Z2BMxJ6HzmnWrXQ9uemoDwwMzG/KCwxTX0zBm06e420UoOk2uiaNStOTtscmOZpuo2vSqDQ9aXtskqPpNromjUrTk7bHJjmabqNr0qg0PWl7bJKj6Ta6Jo1K05O2xyY5mm6ja9KoND1pe2ySo+k2uiaNStOTtscmuVlr+tDQ0DIbyfJRJyYmvnI9Pg965COcaVUY68+0xqtVPm9Wl0olXhcid1zVs2PgdXOayB3coLGK10HHnrMPZ50pzbqVDqHcI1oL64iRNwYr+G9f8V3cyMjI1Xk4gW0rfDkDcRlOBagAFaACVIAKUAEqQAWoABWgAmkrYLY5kzft7sZJXlduGz6rRvtZlCPw4Y/NKRMr4rbiE968spXNGbdT5V5IwO2Uef+dHjU5id92fZuXvE+bYPjySzw4X/PBL4oBzlzBKuPuiSmCi9puutIxIXdSjcfKOGSXCtxPg/fVptwhnMLVNVkOg0rsAI7it2yDQYNSCpazGKtmZ5O8BAflCz44iFsgY8C91WdMb4yMd2VvX9mxHof6eWWxug+x1+mxum/G1DGBG2USMZIOwZJYlFc24VY4V/ng4AQ7KGN84vNiZHzThZKHbd4myaNcFINM8KqwEDfgG1uF5fpDsEJiy7hj4RRxmL+Rwz3xeBG5UftYF3eNEX4uLFbm164D92Sv/1qRC9JtBEbnlgLz7y+LS64v9tnqi+cb5yuYL55vXGxeXzwdZ77SNRnraShA09PwodUsaHqrcqdBRtPT8KHVLGh6q3KnQUbT0/Ch1Sxoeqtyp0FG09PwodUsZq3p2Cy5uE0lsYs27PiwM/dDU15gdLCA+VJTrFbHT9cOFXgHY3KHYIXElpkRC6eIw3KlP+VI3QSKyC3asdffeO9b8lK5b5S2shIrs/PsgBpXFp7bJ2OB9VtuQOqNbgLdV6MfEwrI2NjYZz5zRvzdMgZlrW/51Pigk7buODevJmN9dJEY6ydn1oJo6lEn3Ku+wLH3jwvxBMkNkqgrQ55iAde+/v7+1Xo82j7Xx3n1JpyC58yTupRF3L18Lj5knoKfVIn5X6LP4Lr1OpMC1+K6fDDp3zqcMga8m2pw3yrjLUvTld6bOES4s7et4viTWPdocM8Dl4+oH4Hzfyu1Is/SbnC7Z95uKwiKNscCfDZTASpABagAFaACVIAKUAEqQAWowMxRoNXP6VoWfHa9Gcdnbaui7WN8Rl4f67O55tN18DyG4zdcG/a492Dn7g5wHtUxMeuHXsnw+7RsjmCOqV31sfHsu5UvZzH+I5XAV5atmg6xr0BGeyuzQgDMiPpDPuzbf4otz1uquGF+NE2ObM9yN3m06TqfFduyaNwat7du+S3bWVww3AkwZThMHXYC6xf6n5NBWH3yU9+pFSJ9ISVo+xy3Nhzcp4QXWJs0not1L90WWn9nQzZwfFe+4WVYv2wIH1OGV9TXypmlRXRiFyWj27H3PeKM77Y9gGHv6X6fOnivQdweia3iRvwWxD7vGy9xuty/Obtw4bVZ51ZRtKKL2kf3nUZatct2xXsZoCcVWq9juHBg7GrUO1JUGSZjdKm4H8L4t3RfWV2NC/7GS6/wInOL2sV0l5ul8aaXd4h3k4hbxzSM+Qnjn3UY2gjBLCtV/CMhhjtMnStwnijj0X3acN1ep255qTdd6SK8FrGOAIKDsRcAa6gKA7eGn3FruMzFNeEWXh+MQy9ma+atzn7UuRWt6KJ2vdIdjtVqN13pWoAmdSX6CR+cGIZrHrzzv08f59V7Dc+LCW2zWu1mpuMd8m43SZRvhk42lXg52fDO//1UcoqRh5npuDTe5RLEqtsYI1FfDFza/+jGPuM75lyLMzMdZnfeL2C1TLQpKniXdvm2t8V7eFu2oC2uGDxmpsdIrgkGTrZGGywh3BOj2b0h8dMdO2tNx+3lorbEXb4l29kWVwweM9PxBu6YS3B4eHhdjEQDMO7pxh4OGHNOhZqZjnur2wLNBgcHv2lTUVzWP4zFh49qT8bCSgnHzHSIfyDWRHHV+MBhoTwZgolLvHvsufYLH9V2uMGYi+kmVmGCk9n+wr4GHWam65zwMarRaofmnTdKMOF8jVtSl/t57R8s+P6ESnJYtCH+lySr3s0uF/yYpanpskJwqV+HVTdQJ3GMC34XDt4/havOeIxZghPMPeQRtMrxbwNPCW/jcjIz2xAyNd1NHJfkrV0BxpyYIWJow+QE8h2v4zVO1Xjk68Q+0o27vipe9y9+OJuvj5vUscrN/ltkK/cqiH4cAiwUEbQh0qZL3A5ex9XhcWmripe4vFIbDkOHsYJz/zMz4pxh/yiMteD9Xh17V+XbtqIvVora5QsXqy9aZAKtmO7IIOpyFAeF2LdsYrhw4CT6FSfRpXJcVcbgPPo2LnIH8+/zhabvzYaxwnNPyqqcQ/rNL++SDIQ81BXzUWkrK12se5XF+PZhda90WDC/+2xK4cg5sTgXP5j1LzmWeb+Pcc/HtWG4m3kUUQslZMeUAoc3Z7f3Lct24zSY51Y6/mfFX3NPZGuX7sh+nwpihQpQASpABagAFaACVIAKUAEqQAWoABWgAlSAClABKkAFqAAVoAJUgApQASpABagAFaACVIAKUAEqQAWoABVopMB/D4TyAgRqoO4AAAAASUVORK5CYII=;" vertex="1" parent="1">
          <mxGeometry x="690.75" y="105" width="72.5" height="72.5" as="geometry" />
        </mxCell>
        <mxCell id="d52loy8jxBY1kBWA77zx-17" value="" style="rounded=0;whiteSpace=wrap;html=1;strokeColor=#000000;" vertex="1" parent="1">
          <mxGeometry x="20" y="331" width="330" height="240" as="geometry" />
        </mxCell>
        <mxCell id="d52loy8jxBY1kBWA77zx-18" value="" style="rounded=0;whiteSpace=wrap;html=1;strokeColor=#000000;" vertex="1" parent="1">
          <mxGeometry x="10" y="341" width="330" height="244" as="geometry" />
        </mxCell>
        <mxCell id="d52loy8jxBY1kBWA77zx-19" value="Application" style="rounded=0;whiteSpace=wrap;html=1;fillColor=#000000;fontColor=#FFFFFF;fontSize=16;" vertex="1" parent="1">
          <mxGeometry x="10" y="545" width="330" height="40" as="geometry" />
        </mxCell>
        <mxCell id="d52loy8jxBY1kBWA77zx-20" value="On Premise" style="rounded=0;whiteSpace=wrap;html=1;" vertex="1" parent="1">
          <mxGeometry x="10" y="505" width="110" height="40" as="geometry" />
        </mxCell>
        <mxCell id="d52loy8jxBY1kBWA77zx-21" value="Cloud" style="rounded=0;whiteSpace=wrap;html=1;" vertex="1" parent="1">
          <mxGeometry x="230" y="505" width="110" height="40" as="geometry" />
        </mxCell>
        <mxCell id="d52loy8jxBY1kBWA77zx-22" value="Private Cloud" style="rounded=0;whiteSpace=wrap;html=1;" vertex="1" parent="1">
          <mxGeometry x="120" y="505" width="110" height="40" as="geometry" />
        </mxCell>
        <mxCell id="d52loy8jxBY1kBWA77zx-23" value="Data" style="rounded=0;whiteSpace=wrap;html=1;fillColor=#595959;fontColor=#FFFFFF;align=left;verticalAlign=top;" vertex="1" parent="1">
          <mxGeometry x="20" y="431" width="310" height="60" as="geometry" />
        </mxCell>
        <mxCell id="d52loy8jxBY1kBWA77zx-24" value="Business Logic" style="rounded=0;whiteSpace=wrap;html=1;fillColor=#595959;fontColor=#FFFFFF;align=left;verticalAlign=top;" vertex="1" parent="1">
          <mxGeometry x="20" y="361" width="310" height="60" as="geometry" />
        </mxCell>
        <mxCell id="d52loy8jxBY1kBWA77zx-25" value="" style="shape=image;verticalLabelPosition=bottom;labelBackgroundColor=default;verticalAlign=top;aspect=fixed;imageAspect=0;image=data:image/png,iVBORw0KGgoAAAANSUhEUgAAAJ4AAACeCAYAAADDhbN7AAAAAXNSR0IArs4c6QAAAIRlWElmTU0AKgAAAAgABQESAAMAAAABAAEAAAEaAAUAAAABAAAASgEbAAUAAAABAAAAUgEoAAMAAAABAAIAAIdpAAQAAAABAAAAWgAAAAAAAADcAAAAAQAAANwAAAABAAOgAQADAAAAAQABAACgAgAEAAAAAQAAAJ6gAwAEAAAAAQAAAJ4AAAAAeonODQAAAAlwSFlzAAAh1QAAIdUBBJy0nQAADL5JREFUeAHtnXuMXUUdx+c+drfsltJuiy2tFajEaknFAJr4akIEQjABtQ9joUQLklRBAwaVxD8QoUr5Q/4RIyg0to2RWlOBRIkkiI+ioTYUBdsA0nbb7Yt23e2W3e59+Z3dndu5Z88999xzzj0z95zvJLMzZ+Y3M7/fZ35nzvOeFYKBBEiABEiABEiABEiABEiABEiABEiABEiABEiABEiABEiABEiABEiABEiABEiABEiABEiABEiABEiABEiABEiABEiABEiABEiABEiABEiABEiABEiABEiABEiABEiABEiABEIRyIRqnZLGlUpFcspOmqtSN+vLk4XlTCZTcRNg2QSB1DgenGdxuVz+Ksy+KpvNXm6bA5RKpR25XG479PolnPaobfpRnzoE4FgXYPIeQ5rYAPvuh3Gz6yBoq+K2XPEA/06sXg9h5TonCtroq4h+NqK/l5DKOCQjVp5TSEMF6HouOpiBOAvx0xjrSoyzNlSnWmP0dwr9rYGuv9OKmY2CAPb0Tc0uY2hzDPGnaPeBKHSIuw/ovVjajTgQwPb1ceubmPEAfMwPcMjth1xXYgz3YQjsnVYsFn05JPiM+ugy3SKA9BMvZ0P9btTLwxaDgwC4XAI+R7z4oe5rjmbp3gSQ77gBA8giyiM5j0sbYXC7GPzKblxR9om08Zhibx0wi6cIsiAwATBe5uQsnTJwhxE0NHpVK2HoNuDKzKg+ui5JzAO3vPld0m0zxdzrLryuX+R57HGvq04B5GlTAJQOaUjBWD5RyeAWTPWCA+zvNmG7sRUGBldXOzpd/FNvmr+xFS9+1BzRJgJWOB4Ou7+yCUrSdQHvfaZttOJQqyDwkKtItCbF4bUTPZ9x9m6CuxUrngIhzzsmQ4cqYxqeAJguklzR0xSnC997sB6scDxcZT3iUH/8cZm81wRe73XUcdMHAXC7TDqbDBB/S28Crjfp26nKTyCZ+KsMhwP+US935gFsQMkynUoAfOSTnroB9XepVrqQKktF6mU46jr0eq88YG5GvbFzVROTBXtnYyd91ouLqgOf0246qnqZutUntqwZwwFvjy7fRP52yM5pR4jQ+z2I32vC1qoonPK5RjZXhZFpJNuKemMrhTRcGdTsVRWafhltn1Ttw6SYpP+h/duIr+CFyheR7oI+/wrTp1tb6HwZyj+CdAXiAuQvxngz3WQDlK2AztuaaQcdAvNvZpx6sm3peG7GgON8xI2YgGvc6pNQBvu2wb5bEN8Naw/6Mup4YfUP3F4arkLgTnw2xDh5xF4csjeoMW1Mod966DUTMefTtMBiuv2BOwnRMDErXggGvppioqZBcO6k8EUujfbJMqxG+13qrCuSjqeUgs6x+0HsAypjTRuu9Ehrapq/FTeQ0zr5ababjpfm2Tdou9WOJw8HMuCk+7hBRhy6BQSsdjxlL+53zZlwwZq/C1U90/YjYLvjef3o50D74abGxgnoa5dfZXDIrfk2it92lJtKIAj/qb0EL+HtlODs2rqldDxlgIn7eLYfahUbpgkjYIXjYec7L2FcrTYHvD9ktYKtVE4u9XrA+dtrrRyPfU8QAOdBnbvMp4qN03i1DTCbUwUiJmPxdam/KsbONCYV7BhGNx7OVu/jMvy9RYjpAuNrdc4qD96jKi/TEEO0X1On4djO6WXOPPbYl9vPyvg1hlN5vq2tNNL5qrJUpF6Go26nXu+RX5UKWHWMBJd1HmyqVXjL+vfOLqqVyDjrEr3t13DswVt02UZ5yA8h/ixJ8GDPZsThRrY76u/xYqDLesklri6o4ZiAR/W2QfLo4yTabUT8EqKRbyRj3I8i3oHVaBvS0AE2/bAZJ9EHbKZdVLKJeHIBiN/CBD6Ilwm6ogJjaz+wcwR2LsfThimHz2Z0lo6n5E08uVBjx57GscdhjCzitZis3+rj2Z7H6vVr6NjSHy3pDGKffAyYiBUvanCYlM/BWa/BSrAEaQ/Sbowx/tFvrDZ1P/4NWfn/MWQYQh9DkD2BdBfSP6GPFyaq7PgrHU9pYmLFo+Mp+ilLTTueFc9qUzbnNBcE6Hh0AyMErHY8eThQASfcm4wQ4qDJIqAcSqb1LNNlnHmcyD9Trx3LGxPQeTaWTpCEX8Ox0h3QZfV8gnDEbkpqOQYxHG3y8mUB2RYO+U7ss5WgAYPwj9J83k6JkmYb9SUdT6lr4j6e1RcXCgzT5BGg4yVvTtvCIiscT1/224JaGysJ1gts4J23haEGI4dzDqP/0tIWJlHqAb7ys7fWfDXfihXPAbgknVC+oeEo52YAAuD4z8md2hqnC2BGdE0kDBVkr7ghXPfz+YVCYS9kW/551uisM9cTOMlP7tZ9Wxl1P5LaKfYyNaetgZHrGY7yS/U6j7yNq3XsJMFniQcjvUp+Srca9IpqYRoyfgyHzFpdrlEeq+Z2yCTyV/Kw63LY94dGDBz1K+r5ki5XTyaR5UEMx1OLP+vtms1PPvW4Du3m2QIVumQQ5ZXmahwGdyMNHOSO59cufRC/baKUa+snF4An/7fFY7gK/myUUHz0NegiE+v3X+BkW/Bm8zdh+wkXXRoWScdTQiaeXKixY0+l4Sq0YnCsbqsR6362QY1tcwrneh763dAKPrrdrejf2j5tMBw6dCFOR7wBTvoXXadW5eFML6Dv6xF7EI3dR8XY1WDCSdr6UGsCWFLGlF6nbDFxqOUtCUWfaawE6Hix4uZgioDVjlc9CalUvq4UZkoCoQhoTlU913B2qMvoeZygN/xHwM6+uF1LQOdZW5PwLT+GT14B6qI1+YQjaql5OsiWDmRb580aDvl5uLM/1mw72+y2RR/THHk7xRZPiFkP6XhqSN5OUSSYJp6A1Ve1iaefYgONOd6JH5/9fLG+7Kd4LmIzXec9uK3mNb3YdDDmeCMvba0xUsIYfe3FnTWF3IiUQOF0//jFmeq0UnwXryKfUZuxpsYcT1p5cFVGFA7+p2pw15JlV0gHLJweKlULmQlNQDKVId99QYfqbPSNR8TQ9h61GXtq1PGktUfvXjLugLrl+e5z5Sdkq2H4+cfn6vXMexMYffWJRVV4yDilB3+TEWd23+UsjnXbuOMpa+XqJ6Nb6PnMbUcUyMLQ8ZPvPPXAAje5tJadevrm5YVT/UXFqGvpV95yYyEdTkYbgjEt+laKKXuiDiR/4YfFvId360We+dKpY5/Pz5jr+9Vvz84sriwc2nFPfv7HN/hVcXA7Xowuqk8zu7eauTL+b2Fb63i1iDLi/PV/F12XfKy22MdWaWykUDz4ysHSv3/+qZ4bn+j30cSoyMC2NWt6lt37YHbGhfNznd1N/6TzzL4nxejOtU3ZQMdrAlfX0qvFrHW/EPk572uilT/R4vDxghg+chwfxX8z09F9LDd70atj+/5RkK2Lx/ae/TxabgRvEGeqO29+3qWzpEzngk/miv07r66UyudVOrsX5WZeND3XNb0qJ2WiCKWhvWLk5ZtFaSDczQA6XgSzkZ29UMzdsEtke3pFJmvNKWxgyyrlgiiP9Ivh5/CrzfJI4H68GppwPGPv/HuBCFNXPtEnDt96/ngXHYtceursER0LrhSd779KTFu6UuTnLnERiqeoePJ1MbZniygc/psoHt4BxxpfVGsGz8+v2UzMRuTLv18yjS4u/PbjJefqeF4NmqzLzsZn81v8T6zicDwTK177H4uadBaK20GAjmfHPKROCzpe6qbcDoPpeHbMQ+q0oOOlbsrtMJiOZ8c8pE4LOl7qptwOg+l4dsxD6rSg46Vuyu0w2JzjVcQeOxCkW4viIbHRBAFjj8yksa1+bMZHZo1dysTjMqmVuRUPgy/cGv8LiI2nIh0S5bKomHI6Sdio40kFpPMBwr0yzxAPgbFDYlXvF83OvdFDrRPzgeXi0UxWrHOWB93mobaWXGVI3DfrVvH92lIzW1Y5no5g/wpRyGZEqPcF6Xh4xa8iCr2rRKfO1oa8tY6nw+n7gtgscuImvcxPPq2OVx4Qm3pvF7f4YWRKpi0czwmnb4W4E79RewhnKec46/TtNDheuSgK5T5x/5xviwd0223Pt6XjuUF9e6WYly+JH2BlvE3VJ83xikfFM9lhcUfvd8UBZWO7polxvEYT0P8NcUVmmlidqYjrsVJ+sJG8n/qoXn2XtzZEUezJFMWzoyfF4wsfFm/4Gb+dZVLjeGEmqXLf+K0HdetJpeNdvnni7L3IwTNi/B88/3dAlFdtFfz+SxjobEsCJEACJEACJEACJEACJEACJEACJEACJEACJEACJEACJEACJEACJEACJEACJEACJEACJEACJEACJEACJEACJEACJEACJEACJEACJEACJEACJEACJEACJEACJEACJNBGBP4Pta7qWmho+60AAAAASUVORK5CYII=;" vertex="1" parent="1">
          <mxGeometry x="137.83999999999997" y="438" width="53" height="53" as="geometry" />
        </mxCell>
        <mxCell id="d52loy8jxBY1kBWA77zx-26" value="" style="shape=image;verticalLabelPosition=bottom;labelBackgroundColor=default;verticalAlign=top;aspect=fixed;imageAspect=0;image=data:image/png,iVBORw0KGgoAAAANSUhEUgAAAVkAAAFZCAYAAAAy8lzbAAAAAXNSR0IArs4c6QAAAIRlWElmTU0AKgAAAAgABQESAAMAAAABAAEAAAEaAAUAAAABAAAASgEbAAUAAAABAAAAUgEoAAMAAAABAAIAAIdpAAQAAAABAAAAWgAAAAAAAADcAAAAAQAAANwAAAABAAOgAQADAAAAAQABAACgAgAEAAAAAQAAAVmgAwAEAAAAAQAAAVkAAAAAwupN1QAAAAlwSFlzAAAh1QAAIdUBBJy0nQAAEK9JREFUeAHt3UusJFUZB/DqvnceMC8QDAFnYWJAERCDxmBEAzJG4kYWYEhUlpgoGhNYuJM9MTFBUGOEwEJAI4iJCx6jGzUhKBvUIJiYyAQl8hxmGO70y/+5cOdxc53pvpnqW9X9q8m5VV1dVec7v9Pn6+rqnu6qMhEgQIAAAQIECBAgQIAAAQIECBAgQIAAAQIECBAgQIAAAQIECBAgQIAAAQIECBAgQIAAAQIECBAgQIAAAQIECBAgQIAAAQIECBAgQIAAAQIECBAgQIAAAQIECBAgQIAAAQIECBAgQIAAAQIECBAgQIAAAQIECBAgQIAAAQIECBAgQIAAAQIECBAgQIAAAQIECBAgQIAAAQIECBAgQIAAAQIECBAgQIAAAQIECBAgQIAAAQIECBAgQIAAAQIECBAgQIAAAQIECBAgQIAAAQIECBAgQIAAAQIECBAgQIAAAQIECBAgQIAAAQIECBAgQIAAAQIECBAgQIAAAQIECBAgQIAAAQIECBAgQIAAAQIECBAgQIAAAQIECBAgQIAAAQIECBAgQIAAAQIECBAgQIAAAQIECBAgQIAAAQIECBAgQIAAAQIECBAgQIAAAQIECBAgQIAAAQIECBAgQIAAAQIECBAgQIAAAQIECBAgQIAAAQIECBAgQIAAAQIECBAgQIAAAQIECBAgQIAAAQIECBAgQIAAAQIECBAgQIAAAQIECBAgQIAAAQIECBAgQIAAAQIECBAgQIAAAQIECBAgQIAAAQIECBAgQIAAAQIECBAgQIAAAQIECBAgQIAAAQIECBAgQIAAAQIECBAgQIAAAQIECBAgQIAAAQIECBAgQIAAAQIECBAgQIAAAQIECBAgQIAAAQIECBAgQIAAAQIECBAgQIAAAQIECBAgQIAAAQIECBAgQIAAAQIECBAgQIAAAQIECBAgQIAAAQIECBAgQIAAAQIECBAgQIAAAQIECBAgQIAAAQIECBAgQIAAAQIECBAgQIAAAQIECBAgQIAAAQIECBAgQIAAAQIECBAgQIAAAQIECBAgQIAAAQIECBAgQIAAAQIECBAgQIAAAQIECBAgQIAAAQIECBAgQIAAAQIECBAgQIAAAQIECBAgQIAAAQIECBAgQIAAAQIECBAgQIAAAQIECBAgQIAAAQIECBAgQIAAAQIECBAgQIAAAQIECBAgQIAAAQIECBAgQIAAAQIECBAgQIAAAQIECBAgQIAAAQIECBAgQIAAAQIECBAgQIAAAQIECBAgQIAAAQIECBAgQIAAAQIECBAgQIAAAQKNERiNRp3GBDPlQOa57VOmnrnqGjlorv95tfD2jvM+WVWdizqdznBS9fcMe9VHB29Xg2ph0l2rrdnr4v5SZzDhniXI07PvJb1e1Ztw32pUdXsL1YF/VluevPy6pecn3X2a2yfZXJD69qQsTbPeDaxrS+rem8fh3zcwhpNWnX45Nxt9OmVXysRj5qQVNG+Dbr/ff25xcfEP6Zt+88I7GtHi0cUGLe3evbnzWvW1rWcvfGXUH40dWNmyPGtsHS5U2/sL1WDCp5Cy/2mjbrUrXdZfPtLYVSdPVtX27Lt90uxcquhW1cv7O4c61fBbudXoJJv4rk65M2WeppvT2EYn2cR3ScpdKWelzMW0sLDwUBr6pxRJduIe35dkua1zsPfmsBpOkGRLPSWvLo2G1VvZb9J8VxLlcDSq9g/Wv++BVDppvYtJspleT45uw9lhG2JcBj2Ff9rQ5vIC6vWUuUmyOXs/mLPYMmwbPb0zvBsdouAIECDQXgFJtr19J3ICBFog0Mxrsi2AE+JRgbxsq/KybX/mb2Q+4ZXwo8fZyKXEXl52ljeNdra0CWvypVmvpD2H1ryzJStL36QN70u4rTwplGRb8kBrcpgZAGUc/Dbz+xLn6U2O9f/FltjfGgwGX82bKddmm1Y+UazVtvTLfcPh8M/lvrRtrU0avy7xv53Y706gOxsf7BoBzmaSbfyl8DV6ouWrMpif7na7D7e5Gb1e76K049ok3DY347jY0yePpj2PHreyhTfSL+UTLa1Msq08/T7RY6Tk197yIJFpT+RUw32bazjmVA+ZhLRpqhVOp7Kt06mm9lpa+8w3k0l2qdOdndd7tT92VUCAQJ0CM5dkC1bzPzlXZ5c6NgECTRKYySTbJGCxECAw3wKS7Hz3v9YTIFCzgCRbM7DDEyAw3wKS7Hz3v9YTIFCzgCRbM7DDEyAw3wKS7Hz3v9YTIFCzgCRbM7DDEyAw3wKS7Hz3v9YTIFCzgCRbM7DDEyAw3wKS7Hz3v9YTIFCzgCRbM7DDEyAw3wKS7Hz3v9YTIFCzgCRbM3CbDp/v7Gzt18m1yXmcWNMXs/IVheM0d6a3kWRnuntP3rgM5o/kFwG+m/ml+XLn5S/hzbJke3K6urc4O/1wc75IfE/dFTl+vQKSbL2+jT96EuyH82XVtyXQOzOob0w5ZyXZNj742Q6wnMnekp9duSuJ9valpaUPzXZzZ7d1kmxj+jYnkaPhRvycw9vvEnwq85+k3JFEe12Kx8bRx8bw6OLUlnqp6b95wjt/cXHx1k2bNt2RJ8Rb0y9nTS0CFZ0Sgdn8ja9TQjPtg+QVeqebP4MNqPhIleUnZK5P+Wx+vO4zOYN6JIN7b7k3gzvjfW6/Dn172l/GyvZiMYWpnzrOTDnyczix31NK1n0ssTyU+UO5PfUHS+o1TSggyU4IVsfmw5wndTbt3HHu+d++YTS67ZLUMa1+6WfArn4ZWs6mz8olhG9mEH8+99+V249n+W91tL0lx/xS4rw45UjSqznucuZcfjRw9xr13JB1V+VJcE/65t70yx+P2ca19GMwmrI4rcHclPY2Mo5ykaCzsG37zjMu/EICLGVqUwbp6rqOrMh9F+TO76f8rt/v35Prgw9kef/qHWb8dnnSKZdSSmnCVOI5J0+CN2X+8VxC2Jvl72W5XPZxZhuEpk2SbEN6ZFQNR73+4TJImtgnVyXBXp6zp2uSeM9cIzE3RLGWMI486dRy9MkPuhJPSbaXJcFelvml6Zt/ZXnX5IezR90C3tyoW3h2jn9akuv7U8r1QlOzBFYSb7OiEs2ygCTbmAdCp7PQXWzSWWw5U1qZ/pGF7yTBfjnze1ZWzsn8WIcmNHklnpJYn84Z7O0HDx68MWexd+f2G00IUAzHCzRpUB8f2RzdWr4sOlw6tHTwxb+k2S+kLEyp+YO8ebI7yfMTa9RXBvFrGcQPpDycTxk8XrbJ9levse0sryoO5c2lv6ZM842vXbG+Mn2z+iNbJZ6XUh5JuTeXcZbf+Mq2F+b2tB43qco0roAkO65Ujdt183pi1Nv/5qsv/Oz+cz94y/2p6rQaqzv20IcyiL+YFauTbLkk8OuUB3OG9KsM5MPH7LRyJnXMqplffDAt/GHKtD7ClU/P9c7PE9sHUufqJPtA3ux6OH3yy/Td6je65rFvGv/gk2Qb0EXl1KQa9fv7X376pQyc/0wzpHxq4N8ZsEeqzBnRU4nhrqx4LPMXj9wx3wsHYtELwWvTYkg/vJq6Sp0r0xN5RfFonvTuyX9OeGVlpXnzBSTZxvRRp9PdvJhsd+y4mkpwW96tZV/mP0rSfWzz5s1PlXUZ6Mktc/sfEN5lWZ5txHsX5dLEe1OeT3J9JP3y0y1btjx7bFCW2yEgybajn2qLMmexL2QQ35szpF8kof6mVLSSXCXY2tjHOXD53Gv5/Ouz6aMnxtnBNs0UkGSb2S/TjOqZJNjyv7veXKlUcl2R2ND5y+mHH2xoBCo/JQKS7ClhbO9BMpAPtjf62Y08/VLOZE0zILAR15pmgE0TCBAgMJ6AJDuek60IECCwLgFJdl1sdiJAgMB4ApLseE62IkCAwLoEJNl1sdmJAAEC4wlIsuM52YoAAQLrEpBk18VmJwIECIwnIMmO52QrAgQIrEtAkl0Xm50IECAwnoAkO56TrQgQILAuAUl2XWx2IkCAwHgCkux4TrYiQIDAugQk2XWx2YkAAQLjCUiy4znZigABAusSkGTXxWanNQRm4av5ZqENq7tmVr7Kcri6YW257ftk29JTDY8zv6ZwTX78L9//3V35OZuGR3x8ePl1iKW04XOJ//g7Wn4rbbop/XJlaUaL21Z+yHNHaUMbJ0m2jb3WvJg7GcBX5Iumr2heaONFVBJQEtJySTvG26kFW6Ut1+eHF1sQ6eyGSH92+3aqLZuFxDQLbZhqp6tsLIHZem00VpNtRIAAgekJSLLTs1YTAQJzKNDMywW787PUr422bdqxUI36o4m6pWy9OdfWTu91q/6El9bKvqflz87s2K8m27nsu33UqbYPJgr3nY3zVHdof3VGZ1i14U2jNsS4jk444S5taPOmtOCME7Zixu7M5Z1tadJkA3UDDJqZZPftOzzacd6Pl14d/X7USeqZcOpWg+rA4UF2XJhwz6oa5t8bSZSDqqTN8acSZC/7HuiV+YTTqOoOF0YHMntywj03YvO9qfQbKUsbUfkG1FkSbGlz06dnEuDXU3alTDxmmt64NeLrDgaD5/Km3rw8DtcgsGrmBPLue+PPGupCn+e212XquAQIECBAgAABAgQIECBAgAABAgQIECBAgAABAgQIECBAgAABAgQIECBAgAABAgQIECBAgAABAgQIECBAgAABAgQIECBAgAABAgQIECBAgAABAgQIECBAgAABAgQIECBAgAABAgQIECBAgAABAgQIECBAgAABAgQIECBAgAABAgQIECBAgAABAgQIECBAgAABAgQIECBAgAABAgQIECBAgAABAgQIECBAgAABAgQIECBAgAABAgQIECBAgAABAgQIECBAgAABAgQIECBAgAABAgQIECBAgAABAgQIECBAgAABAgQIECBAgAABAgQIECBAgAABAgQIECBAgAABAgQIECBAgAABAgQIECBAgAABAgQIECBAgAABAgQIECBAgAABAgQIECBAgAABAgQIECBAgAABAgQIECBAgAABAgQIECBAgAABAgQIECBAgAABAgQIECBAgAABAgQIECBAgAABAgQIECBAgAABAgQIECBAgAABAgQIECBAgAABAgQIECBAgAABAgQIECBAgAABAgQIECBAgAABAgQIECBAgAABAgQIECBAgAABAgQIECBAgAABAgQIECBAgAABAgQIECBAgAABAgQIECBAgAABAgQIECBAgAABAgQIECBAgAABAgQIECBAgAABAgQIECBAgAABAgQIECBAgAABAgQIECBAgAABAgQIECBAgAABAgQIECBAgAABAgQIECBAgAABAgQIECBAgAABAgQIECBAgAABAgQIECBAgAABAgQIECBAgAABAgQIECBAgAABAgQIECBAgAABAgQIECBAgAABAgQIECBAgAABAgQIECBAgAABAgQIECBAgAABAgQIECBAgAABAgQIECBAgAABAgQIECBAgAABAgQIECBAgAABAgQIECBAgAABAgQIECBAgAABAgQIECBAgAABAgQIECBAgAABAgQIECBAgAABAgQIECBAgAABAgQIECBAgAABAgQIECBAgAABAgQIECBAgAABAgQIECBAgAABAgQIECBAgAABAgQIECBAgAABAgQIECBAgAABAgQIECBAgAABAgQIECBAgAABAgQIECBAgAABAgQIECBAgAABAgQIECBAgAABAgQIECBAgAABAgQIECBAgAABAgQItEDgf7DcTusL+DmcAAAAAElFTkSuQmCC;" vertex="1" parent="1">
          <mxGeometry x="89.34" y="321" width="150" height="150" as="geometry" />
        </mxCell>
        <mxCell id="d52loy8jxBY1kBWA77zx-27" value="" style="rounded=0;whiteSpace=wrap;html=1;strokeColor=#000000;" vertex="1" parent="1">
          <mxGeometry x="572" y="331" width="330" height="240" as="geometry" />
        </mxCell>
        <mxCell id="d52loy8jxBY1kBWA77zx-28" value="" style="rounded=0;whiteSpace=wrap;html=1;strokeColor=#000000;" vertex="1" parent="1">
          <mxGeometry x="562" y="341" width="330" height="244" as="geometry" />
        </mxCell>
        <mxCell id="d52loy8jxBY1kBWA77zx-29" value="Application" style="rounded=0;whiteSpace=wrap;html=1;fillColor=#000000;fontColor=#FFFFFF;fontSize=16;" vertex="1" parent="1">
          <mxGeometry x="562" y="545" width="330" height="40" as="geometry" />
        </mxCell>
        <mxCell id="d52loy8jxBY1kBWA77zx-30" value="On Premise" style="rounded=0;whiteSpace=wrap;html=1;" vertex="1" parent="1">
          <mxGeometry x="562" y="505" width="110" height="40" as="geometry" />
        </mxCell>
        <mxCell id="d52loy8jxBY1kBWA77zx-31" value="Cloud" style="rounded=0;whiteSpace=wrap;html=1;" vertex="1" parent="1">
          <mxGeometry x="782" y="505" width="110" height="40" as="geometry" />
        </mxCell>
        <mxCell id="d52loy8jxBY1kBWA77zx-32" value="Private Cloud" style="rounded=0;whiteSpace=wrap;html=1;" vertex="1" parent="1">
          <mxGeometry x="672" y="505" width="110" height="40" as="geometry" />
        </mxCell>
        <mxCell id="d52loy8jxBY1kBWA77zx-33" value="Data" style="rounded=0;whiteSpace=wrap;html=1;fillColor=#595959;fontColor=#FFFFFF;align=left;verticalAlign=top;" vertex="1" parent="1">
          <mxGeometry x="572" y="431" width="310" height="60" as="geometry" />
        </mxCell>
        <mxCell id="d52loy8jxBY1kBWA77zx-34" value="Business Logic" style="rounded=0;whiteSpace=wrap;html=1;fillColor=#595959;fontColor=#FFFFFF;align=left;verticalAlign=top;" vertex="1" parent="1">
          <mxGeometry x="572" y="361" width="310" height="60" as="geometry" />
        </mxCell>
        <mxCell id="d52loy8jxBY1kBWA77zx-35" value="" style="shape=image;verticalLabelPosition=bottom;labelBackgroundColor=default;verticalAlign=top;aspect=fixed;imageAspect=0;image=data:image/png,iVBORw0KGgoAAAANSUhEUgAAAJ4AAACeCAYAAADDhbN7AAAAAXNSR0IArs4c6QAAAIRlWElmTU0AKgAAAAgABQESAAMAAAABAAEAAAEaAAUAAAABAAAASgEbAAUAAAABAAAAUgEoAAMAAAABAAIAAIdpAAQAAAABAAAAWgAAAAAAAADcAAAAAQAAANwAAAABAAOgAQADAAAAAQABAACgAgAEAAAAAQAAAJ6gAwAEAAAAAQAAAJ4AAAAAeonODQAAAAlwSFlzAAAh1QAAIdUBBJy0nQAADL5JREFUeAHtnXuMXUUdx+c+drfsltJuiy2tFajEaknFAJr4akIEQjABtQ9joUQLklRBAwaVxD8QoUr5Q/4RIyg0to2RWlOBRIkkiI+ioTYUBdsA0nbb7Yt23e2W3e59+Z3dndu5Z88999xzzj0z95zvJLMzZ+Y3M7/fZ35nzvOeFYKBBEiABEiABEiABEiABEiABEiABEiABEiABEiABEiABEiABEiABEiABEiABEiABEiABEiABEiABEiABEiABEiABEiABEiABEiABEiABEiABEiABEiABEiABEiABEiABEiABEIRyIRqnZLGlUpFcspOmqtSN+vLk4XlTCZTcRNg2QSB1DgenGdxuVz+Ksy+KpvNXm6bA5RKpR25XG479PolnPaobfpRnzoE4FgXYPIeQ5rYAPvuh3Gz6yBoq+K2XPEA/06sXg9h5TonCtroq4h+NqK/l5DKOCQjVp5TSEMF6HouOpiBOAvx0xjrSoyzNlSnWmP0dwr9rYGuv9OKmY2CAPb0Tc0uY2hzDPGnaPeBKHSIuw/ovVjajTgQwPb1ceubmPEAfMwPcMjth1xXYgz3YQjsnVYsFn05JPiM+ugy3SKA9BMvZ0P9btTLwxaDgwC4XAI+R7z4oe5rjmbp3gSQ77gBA8giyiM5j0sbYXC7GPzKblxR9om08Zhibx0wi6cIsiAwATBe5uQsnTJwhxE0NHpVK2HoNuDKzKg+ui5JzAO3vPld0m0zxdzrLryuX+R57HGvq04B5GlTAJQOaUjBWD5RyeAWTPWCA+zvNmG7sRUGBldXOzpd/FNvmr+xFS9+1BzRJgJWOB4Ou7+yCUrSdQHvfaZttOJQqyDwkKtItCbF4bUTPZ9x9m6CuxUrngIhzzsmQ4cqYxqeAJguklzR0xSnC997sB6scDxcZT3iUH/8cZm81wRe73XUcdMHAXC7TDqbDBB/S28Crjfp26nKTyCZ+KsMhwP+US935gFsQMkynUoAfOSTnroB9XepVrqQKktF6mU46jr0eq88YG5GvbFzVROTBXtnYyd91ouLqgOf0246qnqZutUntqwZwwFvjy7fRP52yM5pR4jQ+z2I32vC1qoonPK5RjZXhZFpJNuKemMrhTRcGdTsVRWafhltn1Ttw6SYpP+h/duIr+CFyheR7oI+/wrTp1tb6HwZyj+CdAXiAuQvxngz3WQDlK2AztuaaQcdAvNvZpx6sm3peG7GgON8xI2YgGvc6pNQBvu2wb5bEN8Naw/6Mup4YfUP3F4arkLgTnw2xDh5xF4csjeoMW1Mod966DUTMefTtMBiuv2BOwnRMDErXggGvppioqZBcO6k8EUujfbJMqxG+13qrCuSjqeUgs6x+0HsAypjTRuu9Ehrapq/FTeQ0zr5ababjpfm2Tdou9WOJw8HMuCk+7hBRhy6BQSsdjxlL+53zZlwwZq/C1U90/YjYLvjef3o50D74abGxgnoa5dfZXDIrfk2it92lJtKIAj/qb0EL+HtlODs2rqldDxlgIn7eLYfahUbpgkjYIXjYec7L2FcrTYHvD9ktYKtVE4u9XrA+dtrrRyPfU8QAOdBnbvMp4qN03i1DTCbUwUiJmPxdam/KsbONCYV7BhGNx7OVu/jMvy9RYjpAuNrdc4qD96jKi/TEEO0X1On4djO6WXOPPbYl9vPyvg1hlN5vq2tNNL5qrJUpF6Go26nXu+RX5UKWHWMBJd1HmyqVXjL+vfOLqqVyDjrEr3t13DswVt02UZ5yA8h/ixJ8GDPZsThRrY76u/xYqDLesklri6o4ZiAR/W2QfLo4yTabUT8EqKRbyRj3I8i3oHVaBvS0AE2/bAZJ9EHbKZdVLKJeHIBiN/CBD6Ilwm6ogJjaz+wcwR2LsfThimHz2Z0lo6n5E08uVBjx57GscdhjCzitZis3+rj2Z7H6vVr6NjSHy3pDGKffAyYiBUvanCYlM/BWa/BSrAEaQ/Sbowx/tFvrDZ1P/4NWfn/MWQYQh9DkD2BdBfSP6GPFyaq7PgrHU9pYmLFo+Mp+ilLTTueFc9qUzbnNBcE6Hh0AyMErHY8eThQASfcm4wQ4qDJIqAcSqb1LNNlnHmcyD9Trx3LGxPQeTaWTpCEX8Ox0h3QZfV8gnDEbkpqOQYxHG3y8mUB2RYO+U7ss5WgAYPwj9J83k6JkmYb9SUdT6lr4j6e1RcXCgzT5BGg4yVvTtvCIiscT1/224JaGysJ1gts4J23haEGI4dzDqP/0tIWJlHqAb7ys7fWfDXfihXPAbgknVC+oeEo52YAAuD4z8md2hqnC2BGdE0kDBVkr7ghXPfz+YVCYS9kW/551uisM9cTOMlP7tZ9Wxl1P5LaKfYyNaetgZHrGY7yS/U6j7yNq3XsJMFniQcjvUp+Srca9IpqYRoyfgyHzFpdrlEeq+Z2yCTyV/Kw63LY94dGDBz1K+r5ki5XTyaR5UEMx1OLP+vtms1PPvW4Du3m2QIVumQQ5ZXmahwGdyMNHOSO59cufRC/baKUa+snF4An/7fFY7gK/myUUHz0NegiE+v3X+BkW/Bm8zdh+wkXXRoWScdTQiaeXKixY0+l4Sq0YnCsbqsR6362QY1tcwrneh763dAKPrrdrejf2j5tMBw6dCFOR7wBTvoXXadW5eFML6Dv6xF7EI3dR8XY1WDCSdr6UGsCWFLGlF6nbDFxqOUtCUWfaawE6Hix4uZgioDVjlc9CalUvq4UZkoCoQhoTlU913B2qMvoeZygN/xHwM6+uF1LQOdZW5PwLT+GT14B6qI1+YQjaql5OsiWDmRb580aDvl5uLM/1mw72+y2RR/THHk7xRZPiFkP6XhqSN5OUSSYJp6A1Ve1iaefYgONOd6JH5/9fLG+7Kd4LmIzXec9uK3mNb3YdDDmeCMvba0xUsIYfe3FnTWF3IiUQOF0//jFmeq0UnwXryKfUZuxpsYcT1p5cFVGFA7+p2pw15JlV0gHLJweKlULmQlNQDKVId99QYfqbPSNR8TQ9h61GXtq1PGktUfvXjLugLrl+e5z5Sdkq2H4+cfn6vXMexMYffWJRVV4yDilB3+TEWd23+UsjnXbuOMpa+XqJ6Nb6PnMbUcUyMLQ8ZPvPPXAAje5tJadevrm5YVT/UXFqGvpV95yYyEdTkYbgjEt+laKKXuiDiR/4YfFvId360We+dKpY5/Pz5jr+9Vvz84sriwc2nFPfv7HN/hVcXA7Xowuqk8zu7eauTL+b2Fb63i1iDLi/PV/F12XfKy22MdWaWykUDz4ysHSv3/+qZ4bn+j30cSoyMC2NWt6lt37YHbGhfNznd1N/6TzzL4nxejOtU3ZQMdrAlfX0qvFrHW/EPk572uilT/R4vDxghg+chwfxX8z09F9LDd70atj+/5RkK2Lx/ae/TxabgRvEGeqO29+3qWzpEzngk/miv07r66UyudVOrsX5WZeND3XNb0qJ2WiCKWhvWLk5ZtFaSDczQA6XgSzkZ29UMzdsEtke3pFJmvNKWxgyyrlgiiP9Ivh5/CrzfJI4H68GppwPGPv/HuBCFNXPtEnDt96/ngXHYtceursER0LrhSd779KTFu6UuTnLnERiqeoePJ1MbZniygc/psoHt4BxxpfVGsGz8+v2UzMRuTLv18yjS4u/PbjJefqeF4NmqzLzsZn81v8T6zicDwTK177H4uadBaK20GAjmfHPKROCzpe6qbcDoPpeHbMQ+q0oOOlbsrtMJiOZ8c8pE4LOl7qptwOg+l4dsxD6rSg46Vuyu0w2JzjVcQeOxCkW4viIbHRBAFjj8yksa1+bMZHZo1dysTjMqmVuRUPgy/cGv8LiI2nIh0S5bKomHI6Sdio40kFpPMBwr0yzxAPgbFDYlXvF83OvdFDrRPzgeXi0UxWrHOWB93mobaWXGVI3DfrVvH92lIzW1Y5no5g/wpRyGZEqPcF6Xh4xa8iCr2rRKfO1oa8tY6nw+n7gtgscuImvcxPPq2OVx4Qm3pvF7f4YWRKpi0czwmnb4W4E79RewhnKec46/TtNDheuSgK5T5x/5xviwd0223Pt6XjuUF9e6WYly+JH2BlvE3VJ83xikfFM9lhcUfvd8UBZWO7polxvEYT0P8NcUVmmlidqYjrsVJ+sJG8n/qoXn2XtzZEUezJFMWzoyfF4wsfFm/4Gb+dZVLjeGEmqXLf+K0HdetJpeNdvnni7L3IwTNi/B88/3dAlFdtFfz+SxjobEsCJEACJEACJEACJEACJEACJEACJEACJEACJEACJEACJEACJEACJEACJEACJEACJEACJEACJEACJEACJEACJEACJEACJEACJEACJEACJEACJEACJEACJEACJEACJNBGBP4Pta7qWmho+60AAAAASUVORK5CYII=;" vertex="1" parent="1">
          <mxGeometry x="689.8399999999999" y="438" width="53" height="53" as="geometry" />
        </mxCell>
        <mxCell id="d52loy8jxBY1kBWA77zx-36" value="" style="shape=image;verticalLabelPosition=bottom;labelBackgroundColor=default;verticalAlign=top;aspect=fixed;imageAspect=0;image=data:image/png,iVBORw0KGgoAAAANSUhEUgAAAVkAAAFZCAYAAAAy8lzbAAAAAXNSR0IArs4c6QAAAIRlWElmTU0AKgAAAAgABQESAAMAAAABAAEAAAEaAAUAAAABAAAASgEbAAUAAAABAAAAUgEoAAMAAAABAAIAAIdpAAQAAAABAAAAWgAAAAAAAADcAAAAAQAAANwAAAABAAOgAQADAAAAAQABAACgAgAEAAAAAQAAAVmgAwAEAAAAAQAAAVkAAAAAwupN1QAAAAlwSFlzAAAh1QAAIdUBBJy0nQAAEK9JREFUeAHt3UusJFUZB/DqvnceMC8QDAFnYWJAERCDxmBEAzJG4kYWYEhUlpgoGhNYuJM9MTFBUGOEwEJAI4iJCx6jGzUhKBvUIJiYyAQl8hxmGO70y/+5cOdxc53pvpnqW9X9q8m5VV1dVec7v9Pn6+rqnu6qMhEgQIAAAQIECBAgQIAAAQIECBAgQIAAAQIECBAgQIAAAQIECBAgQIAAAQIECBAgQIAAAQIECBAgQIAAAQIECBAgQIAAAQIECBAgQIAAAQIECBAgQIAAAQIECBAgQIAAAQIECBAgQIAAAQIECBAgQIAAAQIECBAgQIAAAQIECBAgQIAAAQIECBAgQIAAAQIECBAgQIAAAQIECBAgQIAAAQIECBAgQIAAAQIECBAgQIAAAQIECBAgQIAAAQIECBAgQIAAAQIECBAgQIAAAQIECBAgQIAAAQIECBAgQIAAAQIECBAgQIAAAQIECBAgQIAAAQIECBAgQIAAAQIECBAgQIAAAQIECBAgQIAAAQIECBAgQIAAAQIECBAgQIAAAQIECBAgQIAAAQIECBAgQIAAAQIECBAgQIAAAQIECBAgQIAAAQIECBAgQIAAAQIECBAgQIAAAQIECBAgQIAAAQIECBAgQIAAAQIECBAgQIAAAQIECBAgQIAAAQIECBAgQIAAAQIECBAgQIAAAQIECBAgQIAAAQIECBAgQIAAAQIECBAgQIAAAQIECBAgQIAAAQIECBAgQIAAAQIECBAgQIAAAQIECBAgQIAAAQIECBAgQIAAAQIECBAgQIAAAQIECBAgQIAAAQIECBAgQIAAAQIECBAgQIAAAQIECBAgQIAAAQIECBAgQIAAAQIECBAgQIAAAQIECBAgQIAAAQIECBAgQIAAAQIECBAgQIAAAQIECBAgQIAAAQIECBAgQIAAAQIECBAgQIAAAQIECBAgQIAAAQIECBAgQIAAAQIECBAgQIAAAQIECBAgQIAAAQIECBAgQIAAAQIECBAgQIAAAQIECBAgQIAAAQIECBAgQIAAAQIECBAgQIAAAQIECBAgQIAAAQIECBAgQIAAAQIECBAgQIAAAQIECBAgQIAAAQIECBAgQIAAAQIECBAgQIAAAQIECBAgQIAAAQIECBAgQIAAAQIECBAgQIAAAQIECBAgQIAAAQIECBAgQIAAAQIECBAgQIAAAQIECBAgQIAAAQIECBAgQIAAAQIECBAgQIAAAQIECBAgQIAAAQIECBAgQIAAAQIECBAgQIAAAQIECBAgQIAAAQIECBAgQIAAAQKNERiNRp3GBDPlQOa57VOmnrnqGjlorv95tfD2jvM+WVWdizqdznBS9fcMe9VHB29Xg2ph0l2rrdnr4v5SZzDhniXI07PvJb1e1Ztw32pUdXsL1YF/VluevPy6pecn3X2a2yfZXJD69qQsTbPeDaxrS+rem8fh3zcwhpNWnX45Nxt9OmVXysRj5qQVNG+Dbr/ff25xcfEP6Zt+88I7GtHi0cUGLe3evbnzWvW1rWcvfGXUH40dWNmyPGtsHS5U2/sL1WDCp5Cy/2mjbrUrXdZfPtLYVSdPVtX27Lt90uxcquhW1cv7O4c61fBbudXoJJv4rk65M2WeppvT2EYn2cR3ScpdKWelzMW0sLDwUBr6pxRJduIe35dkua1zsPfmsBpOkGRLPSWvLo2G1VvZb9J8VxLlcDSq9g/Wv++BVDppvYtJspleT45uw9lhG2JcBj2Ff9rQ5vIC6vWUuUmyOXs/mLPYMmwbPb0zvBsdouAIECDQXgFJtr19J3ICBFog0Mxrsi2AE+JRgbxsq/KybX/mb2Q+4ZXwo8fZyKXEXl52ljeNdra0CWvypVmvpD2H1ryzJStL36QN70u4rTwplGRb8kBrcpgZAGUc/Dbz+xLn6U2O9f/FltjfGgwGX82bKddmm1Y+UazVtvTLfcPh8M/lvrRtrU0avy7xv53Y706gOxsf7BoBzmaSbfyl8DV6ouWrMpif7na7D7e5Gb1e76K049ok3DY347jY0yePpj2PHreyhTfSL+UTLa1Msq08/T7RY6Tk197yIJFpT+RUw32bazjmVA+ZhLRpqhVOp7Kt06mm9lpa+8w3k0l2qdOdndd7tT92VUCAQJ0CM5dkC1bzPzlXZ5c6NgECTRKYySTbJGCxECAw3wKS7Hz3v9YTIFCzgCRbM7DDEyAw3wKS7Hz3v9YTIFCzgCRbM7DDEyAw3wKS7Hz3v9YTIFCzgCRbM7DDEyAw3wKS7Hz3v9YTIFCzgCRbM7DDEyAw3wKS7Hz3v9YTIFCzgCRbM7DDEyAw3wKS7Hz3v9YTIFCzgCRbM3CbDp/v7Gzt18m1yXmcWNMXs/IVheM0d6a3kWRnuntP3rgM5o/kFwG+m/ml+XLn5S/hzbJke3K6urc4O/1wc75IfE/dFTl+vQKSbL2+jT96EuyH82XVtyXQOzOob0w5ZyXZNj742Q6wnMnekp9duSuJ9valpaUPzXZzZ7d1kmxj+jYnkaPhRvycw9vvEnwq85+k3JFEe12Kx8bRx8bw6OLUlnqp6b95wjt/cXHx1k2bNt2RJ8Rb0y9nTS0CFZ0Sgdn8ja9TQjPtg+QVeqebP4MNqPhIleUnZK5P+Wx+vO4zOYN6JIN7b7k3gzvjfW6/Dn172l/GyvZiMYWpnzrOTDnyczix31NK1n0ssTyU+UO5PfUHS+o1TSggyU4IVsfmw5wndTbt3HHu+d++YTS67ZLUMa1+6WfArn4ZWs6mz8olhG9mEH8+99+V249n+W91tL0lx/xS4rw45UjSqznucuZcfjRw9xr13JB1V+VJcE/65t70yx+P2ca19GMwmrI4rcHclPY2Mo5ykaCzsG37zjMu/EICLGVqUwbp6rqOrMh9F+TO76f8rt/v35Prgw9kef/qHWb8dnnSKZdSSmnCVOI5J0+CN2X+8VxC2Jvl72W5XPZxZhuEpk2SbEN6ZFQNR73+4TJImtgnVyXBXp6zp2uSeM9cIzE3RLGWMI486dRy9MkPuhJPSbaXJcFelvml6Zt/ZXnX5IezR90C3tyoW3h2jn9akuv7U8r1QlOzBFYSb7OiEs2ygCTbmAdCp7PQXWzSWWw5U1qZ/pGF7yTBfjnze1ZWzsn8WIcmNHklnpJYn84Z7O0HDx68MWexd+f2G00IUAzHCzRpUB8f2RzdWr4sOlw6tHTwxb+k2S+kLEyp+YO8ebI7yfMTa9RXBvFrGcQPpDycTxk8XrbJ9levse0sryoO5c2lv6ZM842vXbG+Mn2z+iNbJZ6XUh5JuTeXcZbf+Mq2F+b2tB43qco0roAkO65Ujdt183pi1Nv/5qsv/Oz+cz94y/2p6rQaqzv20IcyiL+YFauTbLkk8OuUB3OG9KsM5MPH7LRyJnXMqplffDAt/GHKtD7ClU/P9c7PE9sHUufqJPtA3ux6OH3yy/Td6je65rFvGv/gk2Qb0EXl1KQa9fv7X376pQyc/0wzpHxq4N8ZsEeqzBnRU4nhrqx4LPMXj9wx3wsHYtELwWvTYkg/vJq6Sp0r0xN5RfFonvTuyX9OeGVlpXnzBSTZxvRRp9PdvJhsd+y4mkpwW96tZV/mP0rSfWzz5s1PlXUZ6Mktc/sfEN5lWZ5txHsX5dLEe1OeT3J9JP3y0y1btjx7bFCW2yEgybajn2qLMmexL2QQ35szpF8kof6mVLSSXCXY2tjHOXD53Gv5/Ouz6aMnxtnBNs0UkGSb2S/TjOqZJNjyv7veXKlUcl2R2ND5y+mHH2xoBCo/JQKS7ClhbO9BMpAPtjf62Y08/VLOZE0zILAR15pmgE0TCBAgMJ6AJDuek60IECCwLgFJdl1sdiJAgMB4ApLseE62IkCAwLoEJNl1sdmJAAEC4wlIsuM52YoAAQLrEpBk18VmJwIECIwnIMmO52QrAgQIrEtAkl0Xm50IECAwnoAkO56TrQgQILAuAUl2XWx2IkCAwHgCkux4TrYiQIDAugQk2XWx2YkAAQLjCUiy4znZigABAusSkGTXxWanNQRm4av5ZqENq7tmVr7Kcri6YW257ftk29JTDY8zv6ZwTX78L9//3V35OZuGR3x8ePl1iKW04XOJ//g7Wn4rbbop/XJlaUaL21Z+yHNHaUMbJ0m2jb3WvJg7GcBX5Iumr2heaONFVBJQEtJySTvG26kFW6Ut1+eHF1sQ6eyGSH92+3aqLZuFxDQLbZhqp6tsLIHZem00VpNtRIAAgekJSLLTs1YTAQJzKNDMywW787PUr422bdqxUI36o4m6pWy9OdfWTu91q/6El9bKvqflz87s2K8m27nsu33UqbYPJgr3nY3zVHdof3VGZ1i14U2jNsS4jk444S5taPOmtOCME7Zixu7M5Z1tadJkA3UDDJqZZPftOzzacd6Pl14d/X7USeqZcOpWg+rA4UF2XJhwz6oa5t8bSZSDqqTN8acSZC/7HuiV+YTTqOoOF0YHMntywj03YvO9qfQbKUsbUfkG1FkSbGlz06dnEuDXU3alTDxmmt64NeLrDgaD5/Km3rw8DtcgsGrmBPLue+PPGupCn+e212XquAQIECBAgAABAgQIECBAgAABAgQIECBAgAABAgQIECBAgAABAgQIECBAgAABAgQIECBAgAABAgQIECBAgAABAgQIECBAgAABAgQIECBAgAABAgQIECBAgAABAgQIECBAgAABAgQIECBAgAABAgQIECBAgAABAgQIECBAgAABAgQIECBAgAABAgQIECBAgAABAgQIECBAgAABAgQIECBAgAABAgQIECBAgAABAgQIECBAgAABAgQIECBAgAABAgQIECBAgAABAgQIECBAgAABAgQIECBAgAABAgQIECBAgAABAgQIECBAgAABAgQIECBAgAABAgQIECBAgAABAgQIECBAgAABAgQIECBAgAABAgQIECBAgAABAgQIECBAgAABAgQIECBAgAABAgQIECBAgAABAgQIECBAgAABAgQIECBAgAABAgQIECBAgAABAgQIECBAgAABAgQIECBAgAABAgQIECBAgAABAgQIECBAgAABAgQIECBAgAABAgQIECBAgAABAgQIECBAgAABAgQIECBAgAABAgQIECBAgAABAgQIECBAgAABAgQIECBAgAABAgQIECBAgAABAgQIECBAgAABAgQIECBAgAABAgQIECBAgAABAgQIECBAgAABAgQIECBAgAABAgQIECBAgAABAgQIECBAgAABAgQIECBAgAABAgQIECBAgAABAgQIECBAgAABAgQIECBAgAABAgQIECBAgAABAgQIECBAgAABAgQIECBAgAABAgQIECBAgAABAgQIECBAgAABAgQIECBAgAABAgQIECBAgAABAgQIECBAgAABAgQIECBAgAABAgQIECBAgAABAgQIECBAgAABAgQIECBAgAABAgQIECBAgAABAgQIECBAgAABAgQIECBAgAABAgQIECBAgAABAgQIECBAgAABAgQIECBAgAABAgQIECBAgAABAgQIECBAgAABAgQIECBAgAABAgQIECBAgAABAgQIECBAgAABAgQIECBAgAABAgQIECBAgAABAgQIECBAgAABAgQIECBAgAABAgQIECBAgAABAgQIECBAgAABAgQIECBAgAABAgQIECBAgAABAgQIECBAgAABAgQIECBAgAABAgQIECBAgAABAgQItEDgf7DcTusL+DmcAAAAAElFTkSuQmCC;" vertex="1" parent="1">
          <mxGeometry x="641.34" y="321" width="150" height="150" as="geometry" />
        </mxCell>
        <mxCell id="d52loy8jxBY1kBWA77zx-37" style="edgeStyle=none;rounded=0;orthogonalLoop=1;jettySize=auto;html=1;exitX=0.25;exitY=1;exitDx=0;exitDy=0;startArrow=oval;startFill=1;endArrow=oval;endFill=1;strokeWidth=9;strokeColor=#4dc5fe;entryX=0.25;entryY=0;entryDx=0;entryDy=0;" edge="1" parent="1" source="d52loy8jxBY1kBWA77zx-2" target="d52loy8jxBY1kBWA77zx-18">
          <mxGeometry relative="1" as="geometry" />
        </mxCell>
        <mxCell id="d52loy8jxBY1kBWA77zx-38" value="&lt;font style=&quot;font-size: 14px;&quot;&gt;Analytics Integration&lt;/font&gt;" style="rounded=0;whiteSpace=wrap;html=1;fontColor=#FFFFFF;fillColor=#4DC5FE;strokeColor=#4DC5FE;" vertex="1" parent="1">
          <mxGeometry x="29.120000000000005" y="230" width="120" height="60" as="geometry" />
        </mxCell>
        <mxCell id="d52loy8jxBY1kBWA77zx-39" style="edgeStyle=none;rounded=0;orthogonalLoop=1;jettySize=auto;html=1;exitX=0.25;exitY=1;exitDx=0;exitDy=0;startArrow=oval;startFill=1;endArrow=oval;endFill=1;strokeWidth=9;strokeColor=#0275cb;" edge="1" parent="1">
          <mxGeometry relative="1" as="geometry">
            <mxPoint x="240" y="180" as="sourcePoint" />
            <mxPoint x="240" y="340" as="targetPoint" />
          </mxGeometry>
        </mxCell>
        <mxCell id="d52loy8jxBY1kBWA77zx-40" style="edgeStyle=none;rounded=0;orthogonalLoop=1;jettySize=auto;html=1;entryX=0;entryY=0.5;entryDx=0;entryDy=0;endArrow=none;endFill=0;strokeWidth=3;dashed=1;strokeColor=#800180;" edge="1" parent="1" source="d52loy8jxBY1kBWA77zx-41" target="d52loy8jxBY1kBWA77zx-46">
          <mxGeometry relative="1" as="geometry" />
        </mxCell>
        <mxCell id="d52loy8jxBY1kBWA77zx-41" value="&lt;font style=&quot;font-size: 14px;&quot;&gt;User &lt;br&gt;Integration&lt;/font&gt;" style="rounded=0;whiteSpace=wrap;html=1;fontColor=#FFFFFF;fillColor=#0275CB;strokeColor=#0275CB;" vertex="1" parent="1">
          <mxGeometry x="180" y="230" width="120" height="60" as="geometry" />
        </mxCell>
        <mxCell id="d52loy8jxBY1kBWA77zx-42" style="edgeStyle=none;rounded=0;orthogonalLoop=1;jettySize=auto;html=1;exitX=0.25;exitY=1;exitDx=0;exitDy=0;startArrow=oval;startFill=1;endArrow=oval;endFill=1;strokeWidth=9;strokeColor=#e35500;" edge="1" parent="1">
          <mxGeometry relative="1" as="geometry">
            <mxPoint x="726.5" y="180" as="sourcePoint" />
            <mxPoint x="727" y="340" as="targetPoint" />
          </mxGeometry>
        </mxCell>
        <mxCell id="d52loy8jxBY1kBWA77zx-43" value="&lt;font style=&quot;font-size: 14px;&quot;&gt;Thing &lt;br&gt;Integration&lt;/font&gt;" style="rounded=0;whiteSpace=wrap;html=1;fontColor=#FFFFFF;fillColor=#E35500;strokeColor=#E35500;" vertex="1" parent="1">
          <mxGeometry x="667" y="230" width="120" height="60" as="geometry" />
        </mxCell>
        <mxCell id="d52loy8jxBY1kBWA77zx-44" style="edgeStyle=none;rounded=0;orthogonalLoop=1;jettySize=auto;html=1;exitX=0;exitY=0.5;exitDx=0;exitDy=0;startArrow=oval;startFill=1;endArrow=oval;endFill=1;strokeWidth=9;strokeColor=#4fb81c;entryX=1;entryY=0.5;entryDx=0;entryDy=0;" edge="1" parent="1" source="d52loy8jxBY1kBWA77zx-52" target="d52loy8jxBY1kBWA77zx-24">
          <mxGeometry relative="1" as="geometry">
            <mxPoint x="460" y="321" as="sourcePoint" />
            <mxPoint x="460" y="507" as="targetPoint" />
          </mxGeometry>
        </mxCell>
        <mxCell id="d52loy8jxBY1kBWA77zx-45" style="edgeStyle=none;rounded=0;orthogonalLoop=1;jettySize=auto;html=1;startArrow=oval;startFill=1;endArrow=oval;endFill=1;strokeWidth=9;strokeColor=#f0ab00;entryX=1;entryY=0.5;entryDx=0;entryDy=0;" edge="1" parent="1" source="d52loy8jxBY1kBWA77zx-50">
          <mxGeometry relative="1" as="geometry">
            <mxPoint x="570" y="461" as="sourcePoint" />
            <mxPoint x="330" y="460.5" as="targetPoint" />
          </mxGeometry>
        </mxCell>
        <mxCell id="d52loy8jxBY1kBWA77zx-46" value="&lt;font style=&quot;font-size: 14px;&quot;&gt;Cross Use&lt;br&gt;Cases&lt;br&gt;&lt;/font&gt;" style="rounded=0;whiteSpace=wrap;html=1;fontColor=#FFFFFF;fillColor=#800180;strokeColor=#800180;" vertex="1" parent="1">
          <mxGeometry x="390" y="230" width="120" height="60" as="geometry" />
        </mxCell>
        <mxCell id="d52loy8jxBY1kBWA77zx-47" style="edgeStyle=none;rounded=0;orthogonalLoop=1;jettySize=auto;html=1;entryX=1;entryY=0.5;entryDx=0;entryDy=0;endArrow=none;endFill=0;strokeWidth=3;dashed=1;strokeColor=#800180;exitX=0;exitY=0.5;exitDx=0;exitDy=0;" edge="1" parent="1" source="d52loy8jxBY1kBWA77zx-43" target="d52loy8jxBY1kBWA77zx-46">
          <mxGeometry relative="1" as="geometry">
            <mxPoint x="310" y="280" as="sourcePoint" />
            <mxPoint x="410" y="280" as="targetPoint" />
          </mxGeometry>
        </mxCell>
        <mxCell id="d52loy8jxBY1kBWA77zx-48" style="edgeStyle=none;rounded=0;orthogonalLoop=1;jettySize=auto;html=1;entryX=0.5;entryY=1;entryDx=0;entryDy=0;endArrow=none;endFill=0;strokeWidth=3;dashed=1;strokeColor=#800180;exitX=0.5;exitY=0;exitDx=0;exitDy=0;" edge="1" parent="1" source="d52loy8jxBY1kBWA77zx-52" target="d52loy8jxBY1kBWA77zx-46">
          <mxGeometry relative="1" as="geometry">
            <mxPoint x="460" y="380" as="sourcePoint" />
            <mxPoint x="530" y="280" as="targetPoint" />
          </mxGeometry>
        </mxCell>
        <mxCell id="d52loy8jxBY1kBWA77zx-49" value="" style="edgeStyle=none;rounded=0;orthogonalLoop=1;jettySize=auto;html=1;startArrow=oval;startFill=1;endArrow=oval;endFill=1;strokeWidth=9;strokeColor=#f0ab00;entryX=1;entryY=0.5;entryDx=0;entryDy=0;" edge="1" parent="1" target="d52loy8jxBY1kBWA77zx-50">
          <mxGeometry relative="1" as="geometry">
            <mxPoint x="570" y="461" as="sourcePoint" />
            <mxPoint x="330" y="460.5" as="targetPoint" />
          </mxGeometry>
        </mxCell>
        <mxCell id="d52loy8jxBY1kBWA77zx-50" value="&lt;font style=&quot;font-size: 14px;&quot;&gt;Data &lt;br&gt;Integration&lt;/font&gt;" style="rounded=0;whiteSpace=wrap;html=1;fontColor=#FFFFFF;fillColor=#F0AB00;strokeColor=#F0AB00;" vertex="1" parent="1">
          <mxGeometry x="390" y="431" width="120" height="60" as="geometry" />
        </mxCell>
        <mxCell id="d52loy8jxBY1kBWA77zx-51" value="" style="edgeStyle=none;rounded=0;orthogonalLoop=1;jettySize=auto;html=1;exitX=0;exitY=0.5;exitDx=0;exitDy=0;startArrow=oval;startFill=1;endArrow=oval;endFill=1;strokeWidth=9;strokeColor=#4fb81c;entryX=1;entryY=0.5;entryDx=0;entryDy=0;" edge="1" parent="1" source="d52loy8jxBY1kBWA77zx-34" target="d52loy8jxBY1kBWA77zx-52">
          <mxGeometry relative="1" as="geometry">
            <mxPoint x="572" y="391" as="sourcePoint" />
            <mxPoint x="330" y="391" as="targetPoint" />
          </mxGeometry>
        </mxCell>
        <mxCell id="d52loy8jxBY1kBWA77zx-52" value="&lt;font style=&quot;font-size: 14px;&quot;&gt;Process Integration&lt;/font&gt;" style="rounded=0;whiteSpace=wrap;html=1;fontColor=#FFFFFF;fillColor=#4FB81C;strokeColor=#4FB81C;" vertex="1" parent="1">
          <mxGeometry x="390" y="361" width="120" height="60" as="geometry" />
        </mxCell>
      </root>
    </mxGraphModel>
  </diagram>
</mxfile>
